<?xml version="1.0" encoding="utf-8"?>
<!-- Generator: Adobe Illustrator 26.2.1, SVG Export Plug-In . SVG Version: 6.00 Build 0)  -->
<svg version="1.1" id="Calque_1" xmlns="http://www.w3.org/2000/svg" xmlns:xlink="http://www.w3.org/1999/xlink" x="0px" y="0px"
	 viewBox="0 0 1200 1200" style="enable-background:new 1200 1200 1200 1200;" xml:space="preserve">
<style type="text/css">
	.st0{fill:#545C68;}
	.st1{fill:#6AB14C;}
	.st2{fill:#B9D15C;}
	.st3{fill:#6B7586;}
</style>
<text transform="matrix(1 0 0 1 751.9124 -5808.4214)" style="font-family:'Nexa-Heavy'; font-size:145.8777px;">psytché</text>
<path d="M1339.61-5978.07c0,0-7.77-135.92-66.02-176.97c0,0-25.52-6.1-22.19,33.84c0,0-4.99,34.95-11.1,47.71
	c0,0-11.1,29.96,3.33,37.17c0,0-49.93,4.99-22.75,82.11c0,0,12.76,34.95,47.16,27.74c0,0,31.07-7.21,34.95-7.77L1339.61-5978.07z"/>
<path d="M1502.72-6058.51c0,0,17.2-0.46,0,18.08c0,0-25.52,26.11-34.95,30.92c0,0-15.53,14.24-21.08,22.01
	c0,0-18.31,22.75-33.29,22.75c0,0,11.65,11.65-38.28,51.59c0,0-41.05,31.62-53.26,16.64c0,0-8.32-19.97,7.77-52.15
	c0,0,23.86-34.95,99.3-77.11C1428.93-6025.78,1483.97-6057.4,1502.72-6058.51z"/>
<g>
	<g>
		<path class="st0" d="M386.35,742.77v19.17h-57.44v38.35h48.48v19.27h-48.48v52.78h-24.28V742.77H386.35z"/>
		<path class="st0" d="M431.78,778.97c5.79,0,11.12,0.93,15.99,2.78c4.87,1.85,9.06,4.56,12.59,8.11c3.52,3.55,6.27,7.92,8.24,13.08
			c1.97,5.17,2.96,11.07,2.96,17.7c0,1.67-0.08,3.06-0.22,4.17c-0.15,1.11-0.42,1.97-0.81,2.6c-0.39,0.63-0.91,1.08-1.57,1.34
			c-0.66,0.27-1.49,0.4-2.51,0.4h-56.81c0.66,9.44,3.19,16.37,7.62,20.79c4.42,4.42,10.27,6.63,17.56,6.63
			c3.58,0,6.67-0.42,9.27-1.26c2.6-0.84,4.87-1.76,6.81-2.78c1.94-1.02,3.64-1.94,5.11-2.78c1.46-0.84,2.88-1.26,4.26-1.26
			c0.9,0,1.67,0.18,2.33,0.54c0.66,0.36,1.22,0.87,1.7,1.52l6.45,8.06c-2.45,2.87-5.2,5.27-8.24,7.21
			c-3.05,1.94-6.23,3.49-9.54,4.66c-3.32,1.16-6.69,1.98-10.13,2.46c-3.43,0.48-6.76,0.72-9.99,0.72c-6.39,0-12.34-1.06-17.83-3.18
			c-5.5-2.12-10.28-5.26-14.34-9.41c-4.06-4.15-7.26-9.29-9.59-15.41c-2.33-6.12-3.49-13.22-3.49-21.28c0-6.27,1.02-12.17,3.05-17.7
			c2.03-5.53,4.94-10.33,8.74-14.43c3.79-4.09,8.42-7.33,13.89-9.72C418.74,780.17,424.91,778.97,431.78,778.97z M432.22,794.83
			c-6.45,0-11.5,1.82-15.14,5.46c-3.64,3.64-5.97,8.81-6.99,15.5h41.58c0-2.87-0.39-5.57-1.16-8.11c-0.78-2.54-1.97-4.76-3.58-6.67
			c-1.61-1.91-3.64-3.42-6.09-4.53C438.38,795.39,435.51,794.83,432.22,794.83z"/>
		<path class="st0" d="M523.08,778.97c5.79,0,11.12,0.93,15.99,2.78c4.87,1.85,9.06,4.56,12.59,8.11c3.52,3.55,6.27,7.92,8.24,13.08
			s2.96,11.07,2.96,17.7c0,1.67-0.08,3.06-0.22,4.17c-0.15,1.11-0.42,1.97-0.81,2.6c-0.39,0.63-0.91,1.08-1.57,1.34
			c-0.66,0.27-1.49,0.4-2.51,0.4h-56.81c0.66,9.44,3.19,16.37,7.62,20.79c4.42,4.42,10.27,6.63,17.56,6.63
			c3.58,0,6.67-0.42,9.27-1.26c2.6-0.84,4.87-1.76,6.81-2.78c1.94-1.02,3.64-1.94,5.11-2.78c1.46-0.84,2.88-1.26,4.26-1.26
			c0.9,0,1.67,0.18,2.33,0.54c0.66,0.36,1.22,0.87,1.7,1.52l6.45,8.06c-2.45,2.87-5.2,5.27-8.24,7.21
			c-3.05,1.94-6.23,3.49-9.54,4.66c-3.32,1.16-6.69,1.98-10.13,2.46c-3.43,0.48-6.76,0.72-9.99,0.72c-6.39,0-12.34-1.06-17.83-3.18
			c-5.5-2.12-10.28-5.26-14.34-9.41c-4.06-4.15-7.26-9.29-9.59-15.41c-2.33-6.12-3.49-13.22-3.49-21.28c0-6.27,1.02-12.17,3.05-17.7
			c2.03-5.53,4.94-10.33,8.74-14.43c3.79-4.09,8.42-7.33,13.89-9.72C510.04,780.17,516.21,778.97,523.08,778.97z M523.53,794.83
			c-6.45,0-11.5,1.82-15.14,5.46c-3.64,3.64-5.97,8.81-6.99,15.5h41.58c0-2.87-0.39-5.57-1.16-8.11c-0.78-2.54-1.97-4.76-3.58-6.67
			c-1.61-1.91-3.64-3.42-6.09-4.53C529.68,795.39,526.81,794.83,523.53,794.83z"/>
		<path class="st0" d="M599.95,739.19v133.15h-22.13V739.19H599.95z"/>
		<path class="st0" d="M714.29,742.77v8.87c0,2.75-0.78,5.26-2.33,7.53l-66.49,93.9h67.2v19.27H614.2v-9.5
			c0-1.19,0.21-2.34,0.63-3.45c0.42-1.1,0.95-2.14,1.61-3.09l66.66-94.35h-64.69v-19.17H714.29z"/>
		<path class="st0" d="M761.95,778.97c5.79,0,11.12,0.93,15.99,2.78c4.87,1.85,9.06,4.56,12.59,8.11c3.52,3.55,6.27,7.92,8.24,13.08
			c1.97,5.17,2.96,11.07,2.96,17.7c0,1.67-0.07,3.06-0.22,4.17c-0.15,1.11-0.42,1.97-0.81,2.6c-0.39,0.63-0.91,1.08-1.57,1.34
			c-0.66,0.27-1.49,0.4-2.51,0.4h-56.81c0.66,9.44,3.19,16.37,7.62,20.79c4.42,4.42,10.27,6.63,17.56,6.63
			c3.58,0,6.67-0.42,9.27-1.26c2.6-0.84,4.87-1.76,6.81-2.78c1.94-1.02,3.64-1.94,5.11-2.78c1.46-0.84,2.88-1.26,4.26-1.26
			c0.9,0,1.67,0.18,2.33,0.54c0.66,0.36,1.23,0.87,1.7,1.52l6.45,8.06c-2.45,2.87-5.2,5.27-8.24,7.21
			c-3.05,1.94-6.23,3.49-9.54,4.66c-3.32,1.16-6.69,1.98-10.13,2.46c-3.43,0.48-6.76,0.72-9.99,0.72c-6.39,0-12.34-1.06-17.83-3.18
			c-5.5-2.12-10.28-5.26-14.34-9.41c-4.06-4.15-7.26-9.29-9.59-15.41c-2.33-6.12-3.49-13.22-3.49-21.28c0-6.27,1.02-12.17,3.05-17.7
			c2.03-5.53,4.94-10.33,8.74-14.43c3.79-4.09,8.42-7.33,13.89-9.72C748.92,780.17,755.08,778.97,761.95,778.97z M762.4,794.83
			c-6.45,0-11.5,1.82-15.14,5.46c-3.64,3.64-5.97,8.81-6.99,15.5h41.58c0-2.87-0.39-5.57-1.16-8.11c-0.78-2.54-1.97-4.76-3.58-6.67
			c-1.61-1.91-3.64-3.42-6.09-4.53C768.55,795.39,765.69,794.83,762.4,794.83z"/>
		<path class="st0" d="M815.26,872.34v-91.93h13.53c2.87,0,4.75,1.34,5.64,4.03l1.52,7.26c1.85-1.91,3.81-3.64,5.87-5.2
			c2.06-1.55,4.24-2.9,6.54-4.03c2.3-1.13,4.76-2,7.39-2.6c2.63-0.6,5.49-0.9,8.6-0.9c5.02,0,9.47,0.85,13.35,2.55
			c3.88,1.7,7.12,4.09,9.72,7.17c2.6,3.08,4.57,6.75,5.91,11.02c1.34,4.27,2.02,8.98,2.02,14.11v58.51h-22.13v-58.51
			c0-5.61-1.3-9.96-3.9-13.04c-2.6-3.08-6.5-4.61-11.69-4.61c-3.82,0-7.41,0.87-10.75,2.6c-3.35,1.73-6.51,4.09-9.5,7.08v66.49
			H815.26z"/>
	</g>
	<g>
		<g>
			<path class="st1" d="M652.53,479.5c5.98,88.16-84.36,166.09-84.36,166.09s-100.03-65.02-106-153.18
				c-5.98-88.16,84.36-166.09,84.36-166.09S646.55,391.33,652.53,479.5z"/>
		</g>
		<g>
			<path class="st2" d="M684.78,687.33c-88.16,5.98-166.09-84.36-166.09-84.36s65.02-100.03,153.18-106s166.09,84.36,166.09,84.36
				S772.95,681.35,684.78,687.33z"/>
		</g>
		<g>
			<path class="st3" d="M409.22,485.73c27.06,42.11,57.33,81.86,92.32,117.57c31.13,31.77,65.19,58.12,102.09,83.72
				c0,0-0.53,1.19-0.53,1.19l-8.16-3.75c-5.53-2.4-12.68-6.25-18.12-8.98c-44.15-23.97-83.19-57.18-114.33-96.58
				c-22.17-28.29-41.45-59.12-54.48-92.72C407.99,486.17,409.22,485.73,409.22,485.73L409.22,485.73z"/>
		</g>
	</g>
</g>
</svg>
